# xmcd
#
# Track frame offsets: 
#        150
#        13388
#        29030
#        44668
#        68813
#        87468
#        101455
#        121348
#        132153
#        150993
#        171058
#        185405
#        206115
#        231310
#
# Disc length: 3343 seconds
#
# Revision: 0
# Processed by: cddbd v1.5.1PL0 Copyright (c) Steve Scherf et al.
# Submitted via: ExactAudioCopy v0.95a5
#
DISCID=c50d0d0e
DTITLE=Louis v Dijk and Pim Jacobs - Play Gershwin
DYEAR=1900
DGENRE=Easy Listening
TTITLE0=Summertime
TTITLE1=Love Walked In
TTITLE2=Lady Be Good
TTITLE3=It Ain't Necessarily So
TTITLE4=How Long Has This Be Going On
TTITLE5=Somebody Loves Me
TTITLE6=I Love You Porgy - My Man Is Gone Now
TTITLE7=I Got Rhythm
TTITLE8='S Wonderfull
TTITLE9=The Man I Love
TTITLE10=Embraceable You
TTITLE11=But Not For Me
TTITLE12=Love Is Here To Stay
TTITLE13=A Foggy Day In London Town
EXTD=
EXTT0=
EXTT1=
EXTT2=
EXTT3=
EXTT4=
EXTT5=
EXTT6=
EXTT7=
EXTT8=
EXTT9=
EXTT10=
EXTT11=
EXTT12=
EXTT13=
PLAYORDER=
